<?xml version="1.0" encoding="utf-8"?>
<!-- Generator: Adobe Illustrator 16.0.0, SVG Export Plug-In . SVG Version: 6.00 Build 0)  -->
<!DOCTYPE svg PUBLIC "-//W3C//DTD SVG 1.1//EN" "http://www.w3.org/Graphics/SVG/1.1/DTD/svg11.dtd">
<svg version="1.1" xmlns="http://www.w3.org/2000/svg" xmlns:xlink="http://www.w3.org/1999/xlink" x="0px" y="0px" width="1000px"
	 height="1000px" viewBox="0 0 1000 1000" enable-background="new 0 0 1000 1000" xml:space="preserve">
<g id="Warm_x2C__fire_x2C__fireplace_x2C__comfort_x2C__Christmas_x2C__girl_x2C__rest_x2C__loneliness">
	<g id="XMLID_3291_">
		<g id="XMLID_2079_">
			<rect id="XMLID_2083_" x="496.982" y="451.488" fill="#E8EAF6" width="314.976" height="297.172"/>
			<path id="XMLID_2077_" fill="#263238" d="M811.602,748.309c-0.246-12.265-0.468-24.53-0.639-36.795l-0.568-37.146l-0.829-74.293
				l-0.367-37.146l-0.28-37.146l-0.416-74.293l3.454,3.454l-78.744,0.244l-39.372,0.019l-39.372-0.039l-78.744-0.228l-39.372-0.286
				l-19.686-0.144l-19.686-0.219l2.8-2.8l-1.02,297.172l-1.78-1.78L811.602,748.309z M811.958,749.01l-314.976,1.43
				c-0.979,0.005-1.776-0.785-1.781-1.764v-0.002v-0.014l-1.019-297.172c-0.005-1.533,1.227-2.782,2.758-2.799l0.042-0.001
				l19.686-0.219l19.686-0.144l39.372-0.286l78.744-0.228l39.372-0.039l39.372,0.019l78.744,0.244h0.03
				c1.897,0.006,3.43,1.548,3.424,3.445v0.008l-0.416,74.293l-0.281,37.146l-0.367,37.146l-0.828,74.293l-0.568,37.146
				c-0.172,12.382-0.396,24.765-0.645,37.146l0,0.006C812.304,748.856,812.148,749.009,811.958,749.01z"/>
		</g>
		<g id="fire-place_1_">
			<g id="XMLID_3393_">
				<g id="XMLID_3414_">
					<g id="XMLID_3415_">
						<g id="XMLID_3416_">
							<path id="XMLID_3417_" fill="#FFD54F" d="M665.144,726.956c-28.745,0-60.531-2.925-78.335-24.65
								c-12.28-14.988-16.799-37.882-13.494-68.211c5.37,8.414,13.621,13.168,21.49,13.168c9.509,0,19.1-7.317,19.1-23.682
								c0-7.253-2.609-15.16-5.379-23.536c-6.647-20.159-14.68-44.493,9.545-72.594c-2.229,10.081-1.159,19.843,3.333,28.364
								c5.469,10.396,15.287,16.853,25.61,16.853c11.012,0,20.05-6.936,25.61-19.153c7.734,15.44,23.075,27.205,35.979,37.111
								c6.393,4.9,12.434,9.528,16.491,13.802c20.25,21.336,25.773,51.003,14.417,77.438
								C727.376,710.103,699.574,726.956,665.144,726.956z"/>
						</g>
					</g>
				</g>
				<g id="XMLID_3410_">
					<g id="XMLID_3411_">
						<g id="XMLID_3412_">
							<path id="XMLID_3413_" fill="#FFD54F" d="M655.525,530.819c-3.024,0-5.778-1.141-8.205-3.369
								c-10.922-10.097-7.091-15.286,1.875-25.139c4.193-4.618,8.766-9.654,10.17-15.594c11.628,6.684,17.043,15.957,15.015,26.09
								C672.424,522.57,663.793,530.819,655.525,530.819z"/>
						</g>
					</g>
				</g>
				<g id="XMLID_3406_">
					<g id="XMLID_3407_">
						<g id="XMLID_3408_">
							<path id="XMLID_3409_" fill="#FFB74D" d="M664.636,726.956c-34.486,0-50.46-11.917-57.787-21.907
								c-3.115-4.248-5.026-8.612-6.049-12.732c2.218,2.001,4.899,3.288,8.214,3.288c2.861,0,5.778-0.988,8.929-3.025
								c2.472-1.611,3.949-3.641,4.392-6.041c0.752-4.066-1.666-7.39-4.012-10.604c-1.902-2.618-3.876-5.316-3.55-7.616
								c1.113-8.042,6.267-11.048,12.08-13.684c0.725,8.204,2.664,17.849,10.615,21.834c2.862,1.431,5.813,2.155,8.756,2.155
								c7.037,0,13.159-4.221,16.799-11.583c4.747-9.617,1.06-20.484-2.508-30.99c-5.134-15.105-7.643-24.796,4.049-31.605
								c0.542,17.641,11.664,25.483,20.828,31.94c8.84,6.24,15.831,11.166,15.831,23.066c0,1.531-2.943,4.999-4.899,7.29
								c-4.139,4.864-11.057,13.014-4.039,20.033c1.974,1.974,4.601,3.07,7.371,3.07c4.094,0,8.223-2.318,11.049-6.186
								c0.67-0.924,1.25-1.902,1.73-2.917c4.347,7.943,5.026,15.295,1.992,21.961C707.634,717.683,683.292,726.956,664.636,726.956z
								"/>
						</g>
					</g>
				</g>
				<g id="XMLID_3402_">
					<g id="XMLID_3403_">
						<g id="XMLID_3404_">
							<path id="XMLID_3405_" fill="#37474F" d="M657.121,750.287c-11.185,0-20.285-9.099-20.285-20.285
								c0-11.177,9.1-20.269,20.285-20.269c11.177,0,20.276,9.092,20.276,20.269C677.397,741.188,668.298,750.287,657.121,750.287z"
								/>
						</g>
					</g>
				</g>
				<g id="XMLID_3398_">
					<g id="XMLID_3399_">
						<g id="XMLID_3400_">
							<path id="XMLID_3401_" fill="#37474F" d="M627.512,750.287c-11.185,0-20.285-9.099-20.285-20.285
								c0-11.177,9.1-20.269,20.285-20.269c11.177,0,20.277,9.092,20.277,20.269C647.789,741.188,638.689,750.287,627.512,750.287z"
								/>
						</g>
					</g>
				</g>
				<g id="XMLID_3394_">
					<g id="XMLID_3395_">
						<g id="XMLID_3396_">
							<path id="XMLID_3397_" fill="#37474F" d="M688.879,750.287c-11.185,0-20.285-9.099-20.285-20.285
								c0-11.177,9.1-20.269,20.285-20.269c11.178,0,20.276,9.092,20.276,20.269C709.155,741.188,700.057,750.287,688.879,750.287z"
								/>
						</g>
					</g>
				</g>
			</g>
		</g>
		<g id="XMLID_2065_">
			<rect id="XMLID_2076_" x="874.175" y="308.459" fill="#E8EAF6" width="44.215" height="440.201"/>
			<path id="XMLID_2061_" fill="#263238" d="M918.74,308.459l1.272,220.101l0.986,220.101c0.006,1.434-1.151,2.602-2.585,2.608l0,0
				h-0.023l-44.215,0.191c-1.529,0.007-2.776-1.219-2.799-2.744l0-0.056c-0.136-9.171-0.263-18.342-0.331-27.513l-0.253-27.512
				c-0.11-9.171-0.09-18.342-0.14-27.513l-0.101-27.512l-0.101-27.513l0.014-27.512l0.034-27.513l0.098-27.513l0.114-27.513
				l0.18-27.513l0.194-27.512l0.263-27.513l0.31-27.512l0.379-27.513l0.379-27.513c0.104-9.171,0.304-18.342,0.479-27.513
				l0.001-0.049c0.013-0.694,0.586-1.246,1.28-1.232h0l22.107,0.428c7.369,0.125,14.738,0.333,22.107,0.503l0.006,0
				C918.586,308.113,918.738,308.27,918.74,308.459z M918.038,308.817c-7.252,0.168-14.503,0.372-21.755,0.496l-22.107,0.427
				l1.281-1.281c0.174,9.171,0.374,18.342,0.478,27.513l0.379,27.513l0.379,27.513l0.31,27.512l0.262,27.513l0.195,27.512
				l0.18,27.513l0.114,27.513l0.098,27.513l0.034,27.513l0.014,27.512l-0.101,27.513l-0.101,27.512
				c-0.05,9.171-0.03,18.342-0.14,27.513l-0.254,27.512c-0.067,9.171-0.194,18.342-0.33,27.513l-2.8-2.8l44.215,0.191l-2.608,2.608
				l0.986-220.101L918.038,308.817z"/>
		</g>
		<path id="XMLID_2057_" fill="#263238" d="M918.74,308.459l1.361,220.101l1.03,220.101c0.007,1.507-1.208,2.734-2.716,2.741h-0.025
			l-44.215,0.244c-1.64,0.01-2.977-1.313-2.985-2.952v-0.001l0-0.032l-0.562-110.05l-0.091-27.513l0.05-27.512l0.063-27.513
			l0.136-27.513l0.422-55.025l0.269-27.513l0.376-27.512l0.388-27.512c0.144-9.171,0.227-18.342,0.42-27.513l0.544-27.513
			c0.165-9.171,0.386-18.342,0.621-27.513c0.005-0.193,0.166-0.346,0.359-0.341c0.187,0.005,0.336,0.156,0.341,0.341
			c0.235,9.171,0.457,18.342,0.621,27.513l0.545,27.513c0.193,9.171,0.276,18.342,0.42,27.513l0.388,27.512l0.376,27.512
			l0.269,27.513l0.421,55.025l0.136,27.513l0.063,27.513l0.05,27.512l-0.091,27.513l-0.562,110.05l-2.986-2.985l44.215,0.244
			l-2.742,2.741l1.031-220.101l1.361-220.101c0.001-0.193,0.159-0.349,0.352-0.348C918.583,308.112,918.738,308.268,918.74,308.459z
			"/>
		<path id="XMLID_2055_" fill="#263238" d="M415.322,251.381l239.148-1.251l239.148-0.976c1.417-0.005,2.571,1.139,2.577,2.557v0
			v0.021l0.223,56.728c0.006,1.531-1.223,2.778-2.75,2.799l-0.05,0c-9.965,0.133-19.929,0.26-29.894,0.326l-29.894,0.25
			c-9.964,0.107-19.929,0.099-29.894,0.143l-29.894,0.1l-29.893,0.099l-29.894-0.004l-59.787-0.121l-59.787-0.278l-29.893-0.177
			l-29.894-0.258l-29.894-0.281l-29.894-0.373l-29.894-0.373c-9.964-0.121-19.929-0.237-29.894-0.432l-0.053-0.001
			c-0.77-0.015-1.382-0.649-1.367-1.418l0.497-28.364l0.262-14.182l0.311-14.182v-0.006
			C414.977,251.534,415.133,251.382,415.322,251.381z M415.68,252.083l0.303,13.83l0.262,14.182l0.497,28.364l-1.419-1.419
			c9.965-0.194,19.929-0.311,29.894-0.432l29.894-0.373l29.894-0.373l29.894-0.281l29.894-0.258l29.893-0.177l59.787-0.278
			l59.787-0.121l29.894-0.004l29.893,0.099l29.894,0.1c9.965,0.044,19.929,0.036,29.894,0.143l29.894,0.25
			c9.964,0.066,19.929,0.193,29.894,0.326l-2.8,2.8l0.223-56.728l2.577,2.577l-239.148-0.976L415.68,252.083z"/>
		<g id="XMLID_2046_">
			<rect id="XMLID_2054_" x="893.618" y="251.731" fill="#E8EAF6" width="38.382" height="56.728"/>
			<path id="XMLID_2040_" fill="#263238" d="M894.009,308.097l18.8-0.587L932,306.968l-1.491,1.491
				c-0.288-9.455-0.479-18.909-0.706-28.364l-0.331-14.182l-0.272-14.182l2.8,2.8c-1.6,0.113-3.199,0.239-4.798,0.315
				c-1.599,0.097-3.198,0.165-4.798,0.227c-3.198,0.152-6.396,0.199-9.595,0.289l-4.798,0.058c-1.599,0.018-3.198,0.047-4.797,0.032
				c-3.199-0.021-6.397,0.008-9.596-0.055l3.667-3.666l-0.129,7.091c-0.026,2.363-0.134,4.727-0.205,7.091
				c-0.087,2.364-0.14,4.728-0.254,7.091l-0.345,7.091c-0.112,2.364-0.29,4.727-0.431,7.091c-0.135,2.364-0.339,4.727-0.52,7.091
				c-0.169,2.363-0.417,4.727-0.628,7.091C894.545,303.611,894.294,305.854,894.009,308.097z M893.268,308.459
				c-0.305-2.363-0.564-4.728-0.805-7.091c-0.21-2.364-0.459-4.728-0.627-7.091c-0.181-2.364-0.386-4.728-0.521-7.091
				c-0.142-2.364-0.319-4.727-0.431-7.091l-0.345-7.091c-0.115-2.363-0.167-4.727-0.254-7.091c-0.071-2.364-0.179-4.728-0.205-7.091
				l-0.129-7.091c-0.036-1.988,1.546-3.628,3.534-3.665l0.133-0.002c3.199-0.063,6.397-0.034,9.596-0.055
				c1.599-0.016,3.198,0.014,4.797,0.032l4.798,0.058c3.199,0.09,6.397,0.137,9.595,0.289c1.6,0.062,3.199,0.13,4.798,0.227
				c1.599,0.077,3.198,0.202,4.798,0.315l0.258,0.019c1.458,0.104,2.567,1.338,2.542,2.782l-0.272,14.182l-0.331,14.182
				c-0.227,9.455-0.417,18.909-0.706,28.364l-0.003,0.087c-0.024,0.799-0.689,1.428-1.488,1.404l-19.191-0.542l-19.191-0.599
				c-0.179-0.005-0.323-0.141-0.345-0.313L893.268,308.459z"/>
		</g>
		<path id="XMLID_2039_" fill="#263238" d="M893.618,308.109l9.595-0.443l9.596-0.386c6.397-0.246,12.794-0.54,19.191-0.744
			l-1.923,1.923l-0.475-14.182l-0.401-14.182c-0.078-2.364-0.142-4.728-0.249-7.091l-0.307-7.091l-0.144-3.545
			c-0.032-1.182-0.089-2.364-0.1-3.545c-0.054-2.364-0.048-4.728-0.028-7.091l3.626,3.626c-3.199-0.062-6.397-0.163-9.596-0.327
			c-3.198-0.159-6.397-0.364-9.595-0.613c-3.199-0.253-6.397-0.571-9.596-0.943c-1.599-0.168-3.198-0.409-4.797-0.612
			c-1.6-0.241-3.199-0.476-4.798-0.78c-0.193-0.037-0.32-0.224-0.283-0.417c0.028-0.147,0.144-0.256,0.283-0.283
			c1.599-0.304,3.198-0.539,4.798-0.78c1.599-0.203,3.198-0.443,4.797-0.612c3.199-0.372,6.397-0.689,9.596-0.943
			c3.198-0.25,6.397-0.455,9.595-0.614c3.199-0.164,6.397-0.266,9.596-0.327c1.964-0.038,3.587,1.524,3.625,3.488l0,0.037
			l0.001,0.102c0.021,2.363,0.026,4.727-0.028,7.091c-0.011,1.182-0.068,2.363-0.1,3.545l-0.144,3.545l-0.307,7.091
			c-0.107,2.364-0.17,4.728-0.249,7.091l-0.401,14.182l-0.475,14.182l-0.004,0.125c-0.034,1.027-0.892,1.833-1.919,1.798
			c-6.397-0.204-12.794-0.498-19.191-0.744l-9.596-0.386l-9.595-0.443c-0.193-0.009-0.343-0.173-0.334-0.366
			C893.292,308.261,893.44,308.118,893.618,308.109z"/>
		<path id="XMLID_2037_" fill="#263238" d="M435.115,308.459l1.75,440.201l-2.101-2.101l439.41-1.495l-3.595,3.595l-0.042-27.513
			l0.045-27.512l0.091-55.025l0.264-55.025l0.339-55.025l0.193-27.513l0.264-27.513l0.557-55.025l0.287-27.512l0.39-27.513
			l0.39-27.513l0.467-27.513c0.003-0.193,0.163-0.348,0.356-0.344c0.189,0.003,0.341,0.156,0.344,0.344l0.467,27.513l0.391,27.513
			l0.39,27.513l0.287,27.512l0.557,55.025l0.264,27.513l0.193,27.513l0.339,55.025l0.264,55.025l0.091,55.025l0.045,27.512
			l-0.042,27.513v0.018c-0.003,1.979-1.61,3.581-3.588,3.578h-0.007l-439.41-1.494h-0.016c-1.155-0.004-2.089-0.944-2.085-2.1
			v-0.001l1.751-440.201c0.001-0.193,0.158-0.35,0.352-0.349C434.959,308.111,435.114,308.267,435.115,308.459z"/>
		<path id="XMLID_2036_" fill="#263238" d="M811.608,748.66l-0.459-18.573l-0.383-18.573l-0.382-18.573l-0.288-18.573l-0.545-37.146
			l-0.27-18.573l-0.189-18.573l-0.344-37.146l-0.259-37.146l-0.11-37.146c-0.007-12.383-0.11-24.765-0.038-37.147l3.616,3.617
			l-314.976-1.544l2.073-2.073l-0.808,148.586l-0.915,148.586c-0.001,0.193-0.159,0.349-0.353,0.348
			c-0.191-0.001-0.346-0.156-0.348-0.348l-0.915-148.586l-0.808-148.586c-0.006-1.138,0.912-2.066,2.05-2.073h0.001h0.021
			l314.976-1.544c1.987-0.009,3.606,1.594,3.616,3.581v0.036c0.073,12.382-0.031,24.764-0.038,37.147l-0.109,37.146l-0.259,37.146
			l-0.344,37.146l-0.189,18.573l-0.27,18.573l-0.545,37.146l-0.288,18.573l-0.383,18.573l-0.382,18.573l-0.459,18.573
			c-0.005,0.193-0.166,0.346-0.359,0.341C811.762,748.997,811.613,748.845,811.608,748.66z"/>
		<g id="XMLID_3322_">
			<path id="XMLID_2034_" fill="#263238" d="M728.076,448.751l-0.563-31.931c-0.007-0.387,0.301-0.705,0.688-0.712h0.003l0.022,0
				l36.214-0.488l18.107-0.295c3.018-0.018,6.036-0.086,9.053-0.063c3.018,0.004,6.036,0.038,9.054,0.101l0.063,0.001
				c0.787,0.017,1.411,0.667,1.395,1.454v0.002c-0.059,2.661-0.091,5.322-0.18,7.983c-0.074,2.661-0.152,5.322-0.263,7.983
				c-0.094,2.661-0.223,5.322-0.361,7.982c-0.167,2.661-0.288,5.322-0.503,7.983c-0.007,0.083-0.079,0.145-0.162,0.138
				c-0.075-0.006-0.132-0.066-0.138-0.138c-0.215-2.661-0.336-5.322-0.503-7.983c-0.138-2.661-0.267-5.322-0.362-7.982
				c-0.11-2.661-0.189-5.322-0.263-7.983c-0.089-2.661-0.122-5.322-0.18-7.983l1.457,1.457c-3.018,0.063-6.036,0.097-9.054,0.101
				c-3.018,0.024-6.036-0.044-9.053-0.063l-18.107-0.295l-36.214-0.488l0.712-0.712l-0.563,31.931
				c-0.001,0.083-0.07,0.149-0.152,0.147C728.142,448.897,728.077,448.832,728.076,448.751z"/>
			<path id="XMLID_2033_" fill="#263238" d="M854.286,416.064l-17.699,0.524c-0.361,0.011-0.663-0.273-0.673-0.635v-0.004
				l-0.001-0.036L835.07,380.7c-0.02-0.817,0.627-1.496,1.445-1.516h0.006l0.066-0.001c2.387-0.047,4.774-0.067,7.161-0.003
				c1.193,0.014,2.387,0.067,3.581,0.104c1.194,0.039,2.387,0.075,3.581,0.141c2.387,0.107,4.774,0.248,7.162,0.428
				c2.387,0.177,4.774,0.396,7.161,0.699c0.083,0.01,0.142,0.086,0.131,0.169c-0.009,0.07-0.064,0.123-0.131,0.131
				c-2.387,0.302-4.774,0.522-7.161,0.699c-2.387,0.18-4.774,0.321-7.162,0.428c-1.193,0.065-2.387,0.102-3.581,0.141
				c-1.193,0.037-2.387,0.089-3.581,0.104c-2.387,0.063-4.774,0.043-7.161-0.003l1.517-1.517l-0.843,35.214l-0.674-0.674
				l17.699,0.524c0.083,0.002,0.148,0.071,0.146,0.154C854.429,415.999,854.365,416.062,854.286,416.064z"/>
			<path id="XMLID_2025_" fill="#263238" d="M763.251,380.55c12.071-0.248,24.143-0.587,36.214-0.755l18.107-0.305
				c6.036-0.09,12.071-0.295,18.107-0.339c0.849-0.006,1.543,0.677,1.549,1.527l0,0.022c0.032,2.935-0.005,5.869-0.062,8.804
				c-0.076,2.935-0.136,5.869-0.258,8.804c-0.101,2.935-0.246,5.869-0.419,8.804c-0.079,1.467-0.186,2.935-0.299,4.401
				c-0.108,1.467-0.213,2.935-0.361,4.402c-0.008,0.083-0.082,0.143-0.165,0.135c-0.073-0.008-0.128-0.065-0.135-0.135
				c-0.148-1.467-0.253-2.935-0.361-4.402c-0.113-1.467-0.22-2.935-0.299-4.401c-0.173-2.935-0.318-5.869-0.419-8.804
				c-0.123-2.935-0.183-5.869-0.258-8.804c-0.057-2.935-0.095-5.869-0.062-8.804l1.549,1.549c-6.036-0.044-12.071-0.25-18.107-0.339
				l-18.107-0.305c-12.071-0.168-24.143-0.507-36.214-0.755c-0.083-0.001-0.148-0.07-0.147-0.153
				C763.105,380.616,763.171,380.552,763.251,380.55z"/>
			<path id="XMLID_2024_" fill="#263238" d="M852.832,416.064c0,0-5.599,0.15-13.997,0.375c-4.199,0.114-9.098,0.253-14.347,0.345
				c-5.249,0.105-10.848,0.218-16.447,0.33c-2.799,0.069-5.599,0.138-8.354,0.206c-2.756,0.092-5.468,0.118-8.092,0.158
				c-2.625-0.004-5.162-0.03-7.567-0.112c-2.406-0.062-4.68-0.147-6.78-0.25c-8.398-0.383-13.997-1.05-13.997-1.05
				c-0.083-0.01-0.142-0.085-0.132-0.168c0.009-0.07,0.064-0.124,0.132-0.132c0,0,5.599-0.667,13.997-1.05
				c2.1-0.104,4.374-0.188,6.78-0.251c2.406-0.083,4.943-0.108,7.567-0.112c2.624,0.04,5.336,0.065,8.092,0.157
				c2.756,0.068,5.555,0.136,8.354,0.206c5.599,0.112,11.198,0.225,16.447,0.33c5.249,0.092,10.147,0.231,14.347,0.345
				c8.398,0.225,13.997,0.375,13.997,0.375c0.083,0.002,0.148,0.071,0.146,0.154C852.976,415.999,852.911,416.063,852.832,416.064z"
				/>
			<path id="XMLID_2019_" fill="#263238" d="M689.916,380.55l36.213-0.483l36.214-0.391c0.559-0.006,1.018,0.442,1.024,1.002v0.022
				l0.399,35.214c0.009,0.777-0.614,1.414-1.391,1.422h-0.001l-0.031,0.001l-9.053,0.093c-3.018,0.016-6.036,0.065-9.054,0.032
				l-9.053-0.047l-9.054-0.134l-9.053-0.188l-9.053-0.273c-3.018-0.106-6.036-0.166-9.054-0.319
				c-3.018-0.139-6.036-0.253-9.053-0.437c-0.083-0.005-0.146-0.076-0.141-0.159c0.005-0.076,0.066-0.136,0.141-0.141
				c3.018-0.184,6.036-0.297,9.053-0.437c3.018-0.153,6.036-0.213,9.054-0.319l9.053-0.272l9.053-0.189l9.054-0.134l9.053-0.047
				c3.018-0.033,6.036,0.017,9.054,0.032l9.053,0.093l-1.423,1.423l0.399-35.214l1.024,1.024l-36.214-0.391l-36.213-0.483
				c-0.083-0.001-0.149-0.069-0.148-0.152C689.769,380.617,689.835,380.551,689.916,380.55z"/>
			<path id="XMLID_2018_" fill="#263238" d="M543.095,415.915l-0.592-35.214c-0.007-0.402,0.314-0.734,0.717-0.741h0.003l0.021,0
				l36.214-0.458l18.107-0.287c3.018-0.023,6.036-0.069,9.053-0.073c3.018-0.002,6.036,0.029,9.054,0.07l0.06,0
				c0.802,0.011,1.442,0.669,1.431,1.471v0.019l-0.177,6.614c-0.086,2.205-0.149,4.41-0.268,6.615
				c-0.098,2.205-0.229,4.41-0.369,6.615c-0.177,2.205-0.3,4.409-0.527,6.614c-0.008,0.083-0.083,0.143-0.166,0.135
				c-0.072-0.008-0.127-0.065-0.134-0.135c-0.227-2.205-0.35-4.41-0.528-6.614c-0.14-2.205-0.27-4.41-0.368-6.615
				c-0.118-2.205-0.182-4.41-0.268-6.615l-0.177-6.614l1.49,1.49c-3.018,0.042-6.036,0.073-9.054,0.071
				c-3.018-0.005-6.036-0.05-9.053-0.074l-18.107-0.287l-36.214-0.458l0.742-0.742l-0.592,35.214
				c-0.001,0.083-0.07,0.149-0.152,0.147C543.162,416.061,543.097,415.995,543.095,415.915z"/>
			<path id="XMLID_2017_" fill="#263238" d="M469.76,415.915c-0.241-11.738-0.57-23.476-0.739-35.214
				c-0.007-0.483,0.379-0.881,0.863-0.889h0.025l18.107-0.303l9.053-0.179c3.018-0.078,6.036-0.14,9.053-0.167
				c3.018-0.056,6.036-0.009,9.054,0.034c3.018,0.079,6.036,0.129,9.053,0.256c3.018,0.103,6.036,0.247,9.054,0.422
				c1.509,0.081,3.018,0.186,4.526,0.304c1.509,0.112,3.018,0.218,4.527,0.371c0.083,0.008,0.143,0.083,0.135,0.165
				c-0.007,0.073-0.065,0.128-0.135,0.135c-1.509,0.153-3.018,0.259-4.527,0.371c-1.509,0.119-3.018,0.223-4.526,0.305
				c-3.018,0.175-6.036,0.319-9.054,0.422c-3.018,0.127-6.036,0.178-9.053,0.256c-3.018,0.042-6.036,0.09-9.054,0.034
				c-3.018-0.026-6.035-0.089-9.053-0.167l-9.053-0.179l-18.107-0.303l0.889-0.889c-0.169,11.738-0.498,23.477-0.739,35.214
				c-0.001,0.083-0.07,0.149-0.153,0.147C469.826,416.06,469.761,415.994,469.76,415.915z"/>
			<path id="XMLID_2016_" fill="#263238" d="M801.411,379.794c-0.241-11.738-0.57-23.476-0.739-35.214
				c-0.007-0.484,0.38-0.881,0.863-0.888l0.026-0.001l18.107-0.303l9.053-0.179c3.018-0.078,6.036-0.141,9.054-0.166
				c3.018-0.057,6.036-0.009,9.054,0.033c3.018,0.078,6.035,0.13,9.053,0.256c3.018,0.104,6.036,0.247,9.053,0.423
				c1.509,0.081,3.018,0.186,4.527,0.305c1.509,0.111,3.018,0.218,4.527,0.37c0.083,0.009,0.143,0.083,0.135,0.165
				c-0.007,0.072-0.065,0.128-0.135,0.135c-1.509,0.152-3.018,0.259-4.527,0.371c-1.509,0.119-3.018,0.223-4.527,0.304
				c-3.018,0.176-6.035,0.319-9.053,0.423c-3.018,0.126-6.036,0.178-9.053,0.256c-3.018,0.042-6.036,0.09-9.054,0.033
				c-3.018-0.025-6.036-0.088-9.054-0.166l-9.053-0.179l-18.107-0.303l0.889-0.889c-0.169,11.738-0.498,23.476-0.739,35.214
				c-0.001,0.083-0.07,0.148-0.153,0.147C801.477,379.939,801.412,379.874,801.411,379.794z"/>
			<path id="XMLID_2012_" fill="#263238" d="M729.32,344.43c12.071-0.248,24.142-0.587,36.213-0.756l18.107-0.304
				c6.036-0.091,12.071-0.296,18.107-0.34c0.849-0.006,1.543,0.677,1.549,1.526v0.023c0.032,2.935-0.005,5.869-0.062,8.804
				c-0.076,2.935-0.136,5.869-0.258,8.803c-0.101,2.935-0.246,5.869-0.419,8.804c-0.079,1.467-0.186,2.935-0.299,4.402
				c-0.108,1.467-0.213,2.935-0.361,4.402c-0.008,0.083-0.082,0.143-0.165,0.135c-0.073-0.007-0.128-0.065-0.135-0.135
				c-0.148-1.467-0.253-2.935-0.361-4.402c-0.113-1.467-0.22-2.935-0.299-4.402c-0.173-2.935-0.318-5.869-0.419-8.804
				c-0.123-2.935-0.183-5.869-0.258-8.803c-0.057-2.935-0.094-5.869-0.062-8.804l1.549,1.549c-6.036-0.044-12.071-0.249-18.107-0.34
				l-18.107-0.304c-12.071-0.169-24.142-0.508-36.213-0.756c-0.083-0.002-0.149-0.07-0.147-0.153
				C729.175,344.496,729.24,344.432,729.32,344.43z"/>
			<path id="XMLID_2011_" fill="#263238" d="M580.646,379.944l-36.214,0.404l-36.213,0.352c-0.495,0.005-0.901-0.393-0.905-0.888
				v-0.001l0-0.016l-0.294-35.214c-0.005-0.647,0.507-1.178,1.151-1.199l0.049-0.001c3.018-0.094,6.036-0.141,9.053-0.194
				c3.018-0.063,6.036-0.104,9.054-0.114c6.035-0.034,12.071-0.112,18.106-0.083c6.036-0.008,12.071,0.058,18.107,0.097
				c6.036,0.079,12.071,0.139,18.107,0.265l0.043,0.001c0.666,0.014,1.195,0.563,1.186,1.228c-0.084,5.869-0.29,11.738-0.431,17.607
				c-0.066,2.935-0.173,5.869-0.288,8.804c-0.107,2.935-0.213,5.869-0.361,8.804l0,0.006
				C580.792,379.88,580.726,379.943,580.646,379.944z M580.49,379.642c-0.144-2.884-0.249-5.768-0.355-8.652
				c-0.114-2.935-0.221-5.869-0.287-8.804c-0.141-5.869-0.346-11.738-0.431-17.607l1.229,1.229
				c-6.036,0.126-12.071,0.186-18.107,0.265c-6.036,0.039-12.071,0.106-18.107,0.097c-6.035,0.03-12.071-0.048-18.106-0.083
				c-3.018-0.01-6.036-0.052-9.054-0.114c-3.018-0.053-6.035-0.101-9.053-0.194l1.2-1.2l-0.294,35.214l-0.906-0.905l36.213,0.352
				L580.49,379.642z"/>
			<path id="XMLID_2000_" fill="#263238" d="M507.461,344.58c0.241,11.738,0.57,23.476,0.739,35.214
				c0.007,0.483-0.379,0.881-0.863,0.889h-0.025l-18.107,0.303l-9.054,0.179c-3.018,0.078-6.036,0.14-9.053,0.167
				c-3.018,0.056-6.036,0.009-9.054-0.034c-3.018-0.078-6.036-0.13-9.053-0.256c-3.018-0.104-6.036-0.247-9.054-0.422
				c-1.509-0.081-3.018-0.186-4.526-0.304c-1.509-0.112-3.018-0.218-4.527-0.371c-0.083-0.008-0.143-0.083-0.135-0.165
				c0.007-0.073,0.065-0.128,0.135-0.135c1.509-0.152,3.018-0.258,4.527-0.37c1.509-0.119,3.018-0.223,4.526-0.304
				c3.018-0.176,6.036-0.319,9.054-0.423c3.018-0.126,6.036-0.177,9.053-0.256c3.018-0.042,6.036-0.09,9.054-0.033
				c3.018,0.026,6.036,0.089,9.053,0.167l9.054,0.179l18.107,0.303l-0.889,0.889c0.169-11.738,0.498-23.477,0.739-35.214
				c0.001-0.083,0.07-0.149,0.153-0.147C507.395,344.435,507.459,344.5,507.461,344.58z"/>
			<path id="XMLID_1999_" fill="#263238" d="M615.823,319.405l0.592,24.269c0.01,0.399-0.306,0.731-0.706,0.741h-0.004h-0.031
				l-36.214,0.459l-18.107,0.287c-3.018,0.023-6.036,0.069-9.053,0.073c-3.018,0.003-6.036-0.029-9.054-0.07l-0.05,0
				c-0.807-0.011-1.452-0.674-1.44-1.48v-0.009l0.177-8.804c0.085-2.935,0.149-5.869,0.268-8.804
				c0.098-2.935,0.229-5.869,0.368-8.804c0.178-2.935,0.301-5.869,0.528-8.804c0.006-0.083,0.079-0.145,0.162-0.139
				c0.075,0.006,0.133,0.066,0.138,0.139c0.227,2.935,0.35,5.869,0.527,8.804c0.14,2.935,0.271,5.869,0.369,8.804
				c0.118,2.935,0.182,5.869,0.268,8.804l0.177,8.804l-1.49-1.49c3.018-0.042,6.036-0.073,9.054-0.07
				c3.018,0.004,6.036,0.05,9.053,0.073l18.107,0.287l36.214,0.458l-0.742,0.742l0.592-24.269c0.002-0.083,0.071-0.148,0.154-0.146
				C615.757,319.261,615.821,319.325,615.823,319.405z"/>
			<path id="XMLID_289_" fill="#263238" d="M543.582,308.459c0.239,11.738,0.563,23.477,0.733,35.215
				c0.007,0.48-0.377,0.875-0.857,0.883h-0.025l-36.761,0.652c-3.063,0.06-6.126,0.012-9.19-0.029
				c-3.063-0.077-6.127-0.128-9.19-0.254c-3.063-0.104-6.127-0.247-9.19-0.424c-1.532-0.082-3.063-0.186-4.595-0.305
				c-1.532-0.112-3.063-0.219-4.595-0.372c-0.083-0.008-0.143-0.082-0.135-0.165c0.007-0.073,0.065-0.128,0.135-0.135
				c1.532-0.153,3.063-0.259,4.595-0.372c1.532-0.12,3.063-0.224,4.595-0.305c3.063-0.177,6.126-0.319,9.19-0.424
				c3.063-0.126,6.127-0.178,9.19-0.254c3.063-0.042,6.127-0.089,9.19-0.029l36.761,0.652l-0.883,0.883
				c0.17-11.738,0.493-23.477,0.733-35.215c0.001-0.083,0.07-0.148,0.153-0.147C543.515,308.313,543.58,308.379,543.582,308.459z"/>
		</g>
		<g id="XMLID_3292_">
			<g id="XMLID_3293_">
				<g id="XMLID_29_">
					<circle id="XMLID_61_" fill="#E8EAF6" cx="644.679" cy="170.62" r="61.89"/>
					<path id="XMLID_1998_" fill="#D9DBE8" d="M632.788,231.369c0,0-1.408-0.257-4.047-0.739c-1.33-0.185-2.909-0.719-4.809-1.229
						c-1.933-0.444-3.979-1.388-6.363-2.266c-4.616-2.057-10.12-5.025-15.556-9.673c-5.439-4.601-10.853-10.822-14.994-18.71
						c-4.202-7.836-6.842-17.42-7.186-27.708c-0.298-10.265,1.923-21.321,7.216-31.362c5.263-10.007,13.343-19.088,23.577-25.314
						c5.113-3.092,10.669-5.569,16.511-7.183c1.447-0.45,2.939-0.732,4.414-1.087c1.493-0.262,2.979-0.585,4.49-0.75
						c1.503-0.225,3.017-0.349,4.533-0.459c0.757-0.076,1.517-0.075,2.276-0.103l1.139-0.033l0.569-0.016l0.376,0.001l0.268,0.006
						c2.718,0.026,6.082,0.272,9.007,0.713c2.998,0.48,5.982,1.076,8.878,1.968c1.464,0.389,2.877,0.938,4.308,1.419
						c1.399,0.568,2.819,1.084,4.177,1.738c2.755,1.219,5.386,2.68,7.919,4.263c10.179,6.32,18.125,15.543,23.234,25.626
						c2.555,5.053,4.443,10.339,5.506,15.672c0.576,2.656,0.904,5.326,1.151,7.96c0.06,1.323,0.187,2.633,0.184,3.939
						c0.003,0.652,0.007,1.302,0.011,1.951l0.002,0.485l0.001,0.121c-0.006,0.311-0.006,0.152-0.01,0.252l-0.015,0.23l-0.061,0.921
						c-0.08,1.226-0.16,2.442-0.239,3.651c-0.017,0.589-0.118,1.233-0.219,1.872c-0.097,0.636-0.193,1.27-0.29,1.901
						c-0.098,0.63-0.195,1.257-0.292,1.882l-0.147,0.935l-0.221,0.896c-0.301,1.189-0.6,2.369-0.896,3.539
						c-0.257,1.179-0.719,2.29-1.098,3.41c-0.406,1.112-0.761,2.229-1.2,3.302c-0.48,1.056-0.957,2.102-1.428,3.137
						c-0.236,0.516-0.471,1.03-0.705,1.541c-0.259,0.498-0.546,0.979-0.815,1.466c-4.236,7.837-9.729,13.991-15.236,18.515
						c-5.501,4.572-11.049,7.459-15.695,9.448c-2.39,0.858-4.459,1.761-6.386,2.179c-1.9,0.488-3.482,0.992-4.827,1.162
						c-2.649,0.447-4.062,0.685-4.062,0.685s1.374-0.394,3.95-1.131c1.301-0.3,2.822-0.963,4.629-1.63
						c0.903-0.337,1.874-0.691,2.857-1.203c0.995-0.472,2.051-0.974,3.168-1.505c4.351-2.33,9.403-5.605,14.333-10.295
						c4.91-4.688,9.619-10.841,13.168-18.298c0.225-0.464,0.467-0.923,0.68-1.397c0.188-0.486,0.378-0.975,0.568-1.465
						c0.381-0.979,0.766-1.967,1.154-2.965c0.348-1.011,0.612-2.062,0.927-3.103c0.289-1.049,0.661-2.083,0.829-3.181
						c0.217-1.083,0.437-2.175,0.657-3.275l0.17-0.825l0.091-0.822c0.062-0.548,0.124-1.098,0.187-1.65
						c0.064-0.551,0.129-1.104,0.193-1.659c0.069-0.551,0.142-1.102,0.136-1.726c0.029-1.21,0.059-2.43,0.089-3.658l0.022-0.922
						l0.005-0.231c-0.001,0.022,0.006-0.213-0.001,0.021l-0.005-0.11l-0.021-0.44c-0.027-0.588-0.055-1.178-0.083-1.769
						c-0.044-1.183-0.213-2.365-0.312-3.556c-0.324-2.37-0.714-4.761-1.332-7.124c-0.154-0.59-0.292-1.186-0.458-1.776l-0.542-1.762
						c-0.325-1.188-0.801-2.334-1.193-3.513c-0.93-2.303-1.902-4.619-3.134-6.828c-2.358-4.469-5.422-8.642-8.952-12.434
						c-3.578-3.751-7.646-7.113-12.129-9.895c-2.248-1.376-4.576-2.649-7.013-3.7c-1.199-0.57-2.455-1.007-3.689-1.502
						c-1.265-0.407-2.509-0.889-3.802-1.216c-2.553-0.768-5.183-1.263-7.821-1.667c-2.727-0.371-5.073-0.535-8.07-0.573
						l-0.268-0.008l-0.134-0.004c0.158,0.002-0.025,0.003-0.025,0.003l-0.502,0.012l-1.003,0.021
						c-0.669,0.02-1.339,0.009-2.005,0.073c-1.335,0.088-2.668,0.182-3.992,0.372c-1.332,0.13-2.638,0.411-3.956,0.625
						c-1.297,0.307-2.615,0.535-3.89,0.926c-5.151,1.375-10.061,3.52-14.598,6.208c-4.493,2.758-8.654,6.006-12.253,9.743
						c-0.93,0.905-1.746,1.911-2.617,2.862c-0.794,1.014-1.652,1.978-2.382,3.031c-1.556,2.04-2.88,4.22-4.139,6.409
						c-4.872,8.86-7.349,18.635-7.455,27.996c0.028,1.17,0.055,2.332,0.083,3.485c0.024,0.577,0,1.156,0.063,1.726
						c0.064,0.569,0.129,1.137,0.193,1.702c0.134,1.13,0.242,2.257,0.389,3.37c0.218,1.101,0.435,2.193,0.649,3.277
						c0.105,0.543,0.21,1.084,0.314,1.624c0.151,0.527,0.301,1.052,0.45,1.575c0.301,1.047,0.599,2.085,0.895,3.114
						c0.332,1.017,0.752,1.992,1.118,2.978c0.398,0.973,0.699,1.98,1.191,2.889c3.463,7.5,8.089,13.714,12.937,18.467
						c4.867,4.756,9.87,8.106,14.19,10.497c4.405,2.248,8.02,3.69,10.593,4.477C631.417,230.957,632.788,231.369,632.788,231.369z"
						/>
					<g id="XMLID_33_">
						<polygon id="XMLID_56_" fill="#6D4C41" points="648.735,219.245 642.246,219.245 641.435,207.889 649.547,207.889 						"/>
						<path id="XMLID_54_" fill="#80CBC4" d="M683.032,206.249c-2.693-6.218-10.371-15.584-10.371-15.584l3.852-0.794
							c-0.908-2.667-11.424-17.659-11.424-17.659l5.138,3.931l2.709-1.453c-3.23-6.543-11.019-18.972-11.019-18.972l2.368,0.33
							l2.278-1.184l-8.687-11.703l2.485-1.645l-15.521-21.185l-15.473,21.062l3.042,1.39l-9.291,12.554l2.865,0.931l2.674-1.308
							c0,0-12.271,19.038-13.267,22.383l3.059,1.013l5.814-4.577c0,0-10.517,15.816-11.478,18.271l3.367,1.067
							c0,0-6.675,10.564-7.882,13.964l16.03,2.648c0,0,4.255-9.763,6.283-11.473c-1.352,3.833-3.886,13.053-3.886,13.053
							l1.898,0.121l2.533-4.461l-0.412,4.59c0,0,8.237,1.204,13.156,1.204c5.868,0,20.174-0.969,25.41-1.753
							c0,0-1.183-4.744-1.994-8.457c1.757,1.82,4.056,6.849,4.056,6.849L683.032,206.249z"/>
						<g id="XMLID_42_">
							<g id="XMLID_52_">
								<circle id="XMLID_53_" fill="#FF5252" cx="634.135" cy="142.996" r="4.056"/>
							</g>
							<g id="XMLID_50_">
								<circle id="XMLID_51_" fill="#FF5252" cx="661.714" cy="190.043" r="3.245"/>
							</g>
							<g id="XMLID_48_">
								<circle id="XMLID_49_" fill="#FF5252" cx="615.478" cy="198.155" r="3.244"/>
							</g>
							<g id="XMLID_46_">
								<circle id="XMLID_47_" fill="#FF5252" cx="639.813" cy="181.932" r="4.056"/>
							</g>
							<g id="XMLID_43_">
								<circle id="XMLID_45_" fill="#FF5252" cx="652.791" cy="154.352" r="4.056"/>
							</g>
						</g>
						<g id="XMLID_34_">
							<polygon id="XMLID_41_" fill="#FFFFFF" points="649.746,196.817 649.531,200.932 653.603,203.208 649.313,203.59 
								648.956,208.291 646.363,204.339 642.246,205.063 644.947,201.688 643.58,198.694 646.669,199.744 							"/>
							<polygon id="XMLID_40_" fill="#FFFFFF" points="648.85,132.24 648.636,136.355 652.706,138.631 648.417,139.013 
								648.061,143.713 645.467,139.762 641.35,140.486 644.052,137.111 642.685,134.117 645.772,135.167 							"/>
							<polygon id="XMLID_39_" fill="#FFFFFF" points="624.987,183.221 627.16,186.201 631.273,185.483 628.51,188.169 
								630.915,191.637 626.883,190.356 624.434,193.183 624.404,189.313 621.764,188.006 624.502,186.992 							"/>
							<polygon id="XMLID_37_" fill="#FFFFFF" points="657.666,167.062 657.475,170.746 661.118,172.784 657.279,173.125 
								656.959,177.333 654.639,173.795 650.953,174.444 653.371,171.423 652.148,168.743 654.913,169.683 							"/>
							<polygon id="XMLID_36_" fill="#FFFFFF" points="633.97,161.392 635.646,164.677 639.82,164.618 636.668,166.835 
								637.519,169.845 634.717,168.737 631.85,171.142 632.433,167.316 630.033,165.608 632.896,165.039 							"/>
							<polygon id="XMLID_35_" fill="#FFFFFF" points="671.302,191.54 672.979,194.825 677.153,194.767 674,196.982 
								674.851,199.993 672.05,198.885 669.183,201.29 669.766,197.464 667.365,195.756 670.228,195.187 							"/>
						</g>
					</g>
				</g>
				<path id="XMLID_3295_" fill="#FF5252" d="M695.593,251.169H593.767v-2.852c0-16.655,13.501-30.157,30.156-30.157h41.514
					c16.654,0,30.156,13.501,30.156,30.157V251.169z"/>
				<rect id="XMLID_3294_" x="591.16" y="244.941" fill="#E83A3A" width="107.039" height="6.228"/>
			</g>
		</g>
	</g>
	<g id="XMLID_3197_">
		<g id="XMLID_3286_">
			<path id="XMLID_3290_" fill="#B76F58" d="M338.344,891.27h170.484V620.627H389.402c-27.25,0-49.34,22.09-49.34,49.34
				L338.344,891.27z"/>
			<path id="XMLID_3289_" fill="#B76F58" d="M217.483,891.27h172.78V536.385c0-59.95-50.317-108.549-110.267-108.549h-79.866
				c-64.497,0-114.767,55.906-107.939,120.041l27.166,255.159C124.698,853.208,167.027,891.27,217.483,891.27z"/>
			<path id="XMLID_3288_" fill="#D69176" d="M193.649,891.27h196.613V536.385c0-59.95-48.599-108.549-108.549-108.549h-20.093
				c-57.804,0-103.23,49.46-98.325,107.056L193.649,891.27z"/>
			<path id="XMLID_3287_" fill="#D69176" d="M232.396,891.27h227.367l-0.276-144.201c0-27.25-22.091-49.34-49.341-49.34H128.75
				l5.093,99.885C136.519,850.092,179.849,891.27,232.396,891.27z"/>
		</g>
		<g id="XMLID_3214_">
			<path id="XMLID_3283_" fill="#FFB74D" d="M234.207,664.164c3.732-6.218,30.576-24.012,74.983-22.696
				c4.37,6.009,43.419,46.38,43.419,46.38s-1.315,44.406-28.617,51.314c-31.456,7.958-74.518-4.982-81.891-32.565
				C236.297,684.881,238.401,682.667,234.207,664.164z"/>
			<g id="XMLID_3281_">
				<path id="XMLID_3282_" fill="#E5B735" d="M327.446,569.026c-4.312,3.495-12.582,9.397-15.789,25.145
					c-1.803,8.854-17.4-59.004-41.076-71.07c-23.43-11.941-17.551,35.592-17.551,35.592s27.424,83.291,35.931,86.545
					c24.744,9.467,57.408-33.305,50.895-68.152C340.895,575.999,330.178,566.813,327.446,569.026z"/>
			</g>
			<path id="XMLID_3280_" fill="#FF5252" d="M663.69,586.29c-2.72-3.363-6.934-2.17-14.098,0.645c-10.265,4.034-44.7,3.95-44.7,3.95
				l-19.805,17.713l26.075,5.329c3.952,7.799,12.066,9.601,17.457,5.531l34.163-25.792
				C664.961,592.005,665.413,588.42,663.69,586.29z"/>
			<g id="XMLID_3274_">
				<g id="XMLID_3275_">
					<g id="XMLID_3276_">
						<path id="XMLID_3277_" fill="#1B8C7E" d="M362.069,696.741c0,0,41.117-38.814,69.59-74.961
							c53.564,2.98,101.313-4.901,176.303-8.12l5.165-24.187c-80.724-20.023-131.152-22.848-190.346-30.559
							c-37.382,2.213-111.699,86.507-135.444,107.138c-13.237,18.199,5.508,43.561,21.661,42.686
							C333.586,707.405,362.069,696.741,362.069,696.741z"/>
					</g>
				</g>
			</g>
			<g id="XMLID_3272_">
				<path id="XMLID_3273_" fill="#FFD54F" d="M310.128,641.277c0,0-5.616-21.81-9.97-42.408
					c-2.239-10.592,6.879-21.491,1.795-31.013c-5.494-10.289-12.619-34.92-17.759-42.449c-3.935-5.762-10.31-9.387-17.268-9.908
					c-19.265-1.442-27.902,1.224-40.563,1.099c-30.821-0.303-31.277,3.529-40.524,9.236c0.569,2.505,9.334,48.842,13.374,63.004
					c7.411,25.985,30.818,59.852,34.501,72.543L310.128,641.277z"/>
			</g>
			<g id="XMLID_3240_">
				<g id="XMLID_3269_">
					<path id="XMLID_3271_" fill="#D69176" d="M254.555,414.541c-1.028-0.179-2.064-0.338-3.117-0.448l0,0l-0.06,0.567
						C252.425,414.563,253.485,414.523,254.555,414.541z"/>
					<path id="XMLID_3270_" fill="#7986CB" d="M276.706,425.212c5.022,6.104,7.577,14.209,6.401,22.656l-4.951,35.592
						c-1.864,13.396-27.629,20.88-27.629,20.88l1.428,15.574l8.328,6.94c4.947,4.123,5.026,11.695,0.167,15.92l0,0
						c-6.021,5.235-4.194,15.013,3.309,17.722l18.787,6.784l-3.219-3.219c-4.854-4.854-3.793-12.987,2.143-16.434l7.365-4.276
						c5.848-3.396,6.982-11.368,2.313-16.26l-3.508-3.675c-4.298-4.503-3.733-11.742,1.212-15.523l2.875-2.198
						c2.88-2.203,4.415-5.733,4.053-9.341c-1.369-13.652-4.716-47.156-5.222-53.502C289.895,434.539,285.229,432.76,276.706,425.212
						z"/>
				</g>
				<path id="XMLID_3268_" fill="#FFAF99" d="M244.344,535.729L244.344,535.729c-9.647,0.714-18.046-6.526-18.76-16.173
					l-2.469-33.332l30.051-2.226l2.831,38.213C256.512,529.162,251.295,535.214,244.344,535.729z"/>
				<g id="XMLID_3241_">
					<path id="XMLID_3265_" fill="#FFAF99" d="M250.527,504.34L250.527,504.34c13.396,1.864,25.765-7.485,27.629-20.88l4.951-35.592
						c2.23-16.027-8.955-30.827-24.982-33.056l0,0c-16.026-2.23-30.827,8.955-33.057,24.982l-3.625,26.062
						C218.847,484.514,231.869,501.744,250.527,504.34z"/>
					<path id="XMLID_3264_" fill="#7986CB" d="M218.403,426.167c-8.971,18.416-28.743,63.445-28.743,63.445
						s-7.228,7.231,0.126,18.46c5.958,9.098-9.735,12.767-9.868,26.644c2.138-5.756,6.414-11.595,19.736-13.815
						c8.122-1.354,13.018,6.831,24.485-7.209c5.876-37.088-3.083-37.532-3.024-43.435c0.006-0.604,1.722-8.731,1.722-8.731l0,0
						c3.514,0.077,6.529-2.489,7.013-5.971l2.06-14.809c1.479-10.629,11.294-18.046,21.923-16.568l2.932,0.408
						c2.599,0.361,5.105,0.796,7.472,1.339c12.234,2.809,20.739,8.515,18.871,21.943l-2.715,19.515
						c6.275-3.403,8.851-9.522,9.741-16.33c2.148-16.434-6.286-33.681-21.753-39.636
						C246.034,402.813,227.098,408.32,218.403,426.167z"/>
					<path id="XMLID_1997_" fill="#263238" d="M259.967,477.627c-0.819,0-1.561-0.046-2.221-0.137
						c-0.547-0.076-0.929-0.581-0.853-1.128c0.077-0.547,0.582-0.929,1.128-0.853c1.289,0.18,3.053,0.152,5.101-0.078
						c0.584-0.066,1.092-0.396,1.393-0.906c0.303-0.515,0.346-1.126,0.118-1.677c-2.975-7.174-4.347-11.794-4.077-13.733
						c0.076-0.547,0.589-0.932,1.128-0.853c0.547,0.076,0.929,0.581,0.853,1.128c-0.208,1.492,1.267,6.236,3.944,12.691
						c0.472,1.137,0.383,2.398-0.242,3.459c-0.623,1.057-1.677,1.741-2.892,1.878C262.107,477.558,260.979,477.627,259.967,477.627z
						"/>
					<path id="XMLID_1995_" fill="#263238" d="M260.005,491.08c-0.642,0-1.287-0.044-1.934-0.134
						c-3.658-0.509-6.9-2.412-9.127-5.359c-0.333-0.441-0.246-1.068,0.195-1.401c0.441-0.333,1.068-0.246,1.401,0.195
						c3.933,5.204,11.366,6.237,16.568,2.305c0.441-0.333,1.068-0.246,1.401,0.195c0.333,0.441,0.246,1.068-0.195,1.401
						C265.888,490.114,262.994,491.08,260.005,491.08z"/>
					<g id="XMLID_3242_">
						<path id="XMLID_1993_" fill="#F78C74" d="M232.441,495.942c0,0,0.432,0.204,1.149,0.602c0.725,0.37,1.729,0.915,2.946,1.518
							c2.438,1.194,5.666,2.624,9.027,3.641c0.836,0.269,1.686,0.491,2.522,0.717c0.84,0.208,1.671,0.407,2.482,0.581
							c0.82,0.177,1.571,0.312,2.331,0.425c0.749,0.107,1.465,0.202,2.133,0.265c0.653,0.049,1.318,0.109,1.811,0.122
							c0.566-0.012,1.065,0.009,1.475,0.02c0.82,0.025,1.295,0.074,1.295,0.074s-0.43,0.209-1.192,0.514
							c-0.381,0.15-0.843,0.34-1.379,0.523c-0.61,0.201-1.209,0.346-1.93,0.468c-0.708,0.128-1.485,0.231-2.313,0.271
							c-0.816,0.04-1.726,0.032-2.609-0.047c-1.786-0.143-3.679-0.501-5.512-1.066c-0.913-0.292-1.818-0.612-2.679-0.998
							c-0.435-0.183-0.859-0.379-1.269-0.595c-0.415-0.202-0.818-0.414-1.203-0.646c-0.78-0.439-1.505-0.916-2.166-1.399
							c-0.669-0.472-1.258-0.978-1.791-1.449c-0.54-0.463-0.994-0.935-1.389-1.355c-0.403-0.412-0.715-0.819-0.981-1.131
							C232.702,496.342,232.441,495.942,232.441,495.942z"/>
						<g id="XMLID_3252_">
							
								<ellipse id="XMLID_3256_" transform="matrix(0.9512 -0.3084 0.3084 0.9512 -131.8494 90.2159)" fill="#FFAF99" cx="219.435" cy="462.157" rx="6.886" ry="10.063"/>
							<path id="XMLID_3253_" fill="#F78C74" d="M222.837,461.524c-1.838,0.398-2.59,1.369-2.53,2.381
								c0.071,1.202,1.01,2.993,2.655,3.9c-0.272,0.393-0.642,0.677-1.115,0.83c-1.966,0.638-4.332-0.554-5.489-4.123
								c-1.157-3.567-0.5-6.976,1.466-7.614C219.792,456.261,221.681,457.957,222.837,461.524z"/>
						</g>
						<g id="XMLID_3243_">
							
								<ellipse id="XMLID_3249_" transform="matrix(0.9905 0.1378 -0.1378 0.9905 65.5572 -29.8125)" fill="#263238" cx="248.122" cy="458.632" rx="2.188" ry="3.576"/>
							
								<ellipse id="XMLID_3246_" transform="matrix(0.9905 0.1377 -0.1377 0.9905 66.1867 -33.0091)" fill="#263238" cx="271.692" cy="461.911" rx="2.188" ry="3.576"/>
							<path id="XMLID_1992_" fill="#263238" d="M278.714,453.211c-0.298,0-0.593-0.133-0.791-0.387
								c-1.581-2.037-4.247-3.18-7.33-3.146c-0.004,0-0.008,0-0.013,0c-0.546,0-0.993-0.439-1-0.988
								c-0.007-0.552,0.436-1.005,0.988-1.012c3.716-0.033,6.966,1.383,8.935,3.92c0.338,0.436,0.259,1.064-0.177,1.403
								C279.144,453.143,278.928,453.211,278.714,453.211z"/>
							<path id="XMLID_1987_" fill="#263238" d="M255.26,447.598c-0.099,0-0.199-0.015-0.299-0.046
								c-4.982-1.557-8.807-1.619-11.689-0.19c-0.495,0.246-1.095,0.043-1.34-0.452c-0.245-0.495-0.043-1.095,0.452-1.34
								c3.366-1.667,7.676-1.644,13.173,0.073c0.527,0.165,0.821,0.726,0.656,1.253C256.08,447.323,255.686,447.597,255.26,447.598z
								"/>
						</g>
					</g>
				</g>
			</g>
			<g id="XMLID_3231_">
				<path id="XMLID_25_" fill="#E83A3A" d="M312.943,603.776l8.542,0.053c8.836,0.056,16.044-7.063,16.1-15.899l0.171-27.304
					l-40.541-0.254l-0.171,27.303C296.989,596.512,304.107,603.721,312.943,603.776z"/>
				<path id="XMLID_3238_" fill="#FFAF99" d="M340.645,596.885c0.479-0.628,3.455-5,5.183-10.013
					c1.499-4.348,0.057-11.556-0.002-12.075c0,0-6.376-7.838-8.105-6.855c-0.87,2.278-0.042,6.741-0.053,8.524
					c-2.802,1.163-5.446,2.146-6.231,2.295c-6.354,1.211-3.497,5.665,0.681,4.948c1.002-0.172,3.016-0.629,5.335-1.258
					c-3.421,1.487-7.19,2.93-8.154,3.113c-4.972,0.948-3.558,3.758-1.29,4.688c-3.801,1.404-1.838,5.396,0.904,4.916
					c0.076-0.013,0.164-0.03,0.253-0.047c-2.424,1.667-0.595,4.854,1.872,4.422C333.997,599.027,341.839,596.233,340.645,596.885z"
					/>
				<g id="XMLID_3236_">
					<path id="XMLID_3237_" fill="#FFAF99" d="M319.109,574.444c-1.496-0.378-7.285-1.393-14.375-1.555
						c-7.309-0.166-17.316,4.113-20.859,6.36c-4.152,4.918-2.906,5.113-6.599,10.501c-2.583,3.771,7.733,13.018,15.897,13.812
						c4.264,0.414,10.696-2.391,11.252-3.192c0.368-0.528,6.412-3.26,6.716-3.813c0.578-1.051,4.007,0.747,4.973-2.899
						c0.844-6.328,6.202-9.39,2.415-12.931C324.022,580.09,324.603,575.827,319.109,574.444z"/>
				</g>
				<path id="XMLID_3235_" fill="#E5B735" d="M293.174,603.563c-17.102,39.472-63.869,65.289-100.724,48.583
					c-34.735-23.105-26.183-106.994-7.598-125.324c4.016-3.961,15.727,4.027,16.776,11.842c4.529,33.726,25.164,9.375,27.63,75.491
					c12.829-3.783,23.429-18.178,50.716-28.962C285.013,594.417,289.535,596.654,293.174,603.563z"/>
				<path id="XMLID_1984_" fill="#FFFFFF" d="M201.825,538.632l0.467,2.552c0.155,0.851,0.382,1.676,0.569,2.513
					c0.411,1.665,0.94,3.298,1.539,4.894c0.655,1.571,1.357,3.125,2.29,4.536c0.906,1.425,1.946,2.755,3.135,3.962
					c2.346,2.436,5.141,4.52,7.566,7.123c1.227,1.28,2.35,2.678,3.34,4.16l0.732,1.12l0.666,1.158
					c0.46,0.766,0.837,1.569,1.229,2.367c0.765,1.603,1.427,3.249,2.002,4.917c0.315,0.828,0.557,1.674,0.814,2.516
					c0.262,0.842,0.514,1.687,0.717,2.54c0.212,0.852,0.446,1.7,0.64,2.556l0.547,2.571c0.362,1.716,0.627,3.442,0.932,5.166
					c0.236,1.729,0.516,3.457,0.715,5.188c0.185,1.732,0.417,3.465,0.567,5.2c0.149,1.735,0.33,3.47,0.452,5.206l0.361,5.21
					l-2.371-1.705c1.06-0.424,2.139-0.749,3.165-1.294c1.044-0.465,2.056-1.052,3.073-1.622c1.01-0.59,2.003-1.235,3.005-1.87
					l2.976-2.017l5.996-4.158c2.017-1.388,4.079-2.737,6.163-4.058c1.031-0.674,2.092-1.309,3.16-1.932
					c1.057-0.638,2.131-1.249,3.218-1.838c1.08-0.601,2.156-1.206,3.274-1.738c1.11-0.543,2.204-1.115,3.324-1.633l3.386-1.497
					c1.126-0.499,2.289-0.918,3.437-1.363l1.724-0.659c0.578-0.21,1.169-0.388,1.753-0.582l3.513-1.113
					c0.106-0.033,0.218,0.025,0.251,0.131c0.03,0.094-0.013,0.193-0.097,0.237l-0.007,0.004l-3.244,1.714
					c-1.088,0.55-2.159,1.13-3.218,1.73c-1.057,0.605-2.137,1.157-3.183,1.772l-3.132,1.846c-1.043,0.613-2.058,1.276-3.086,1.911
					c-1.031,0.63-2.03,1.313-3.044,1.969c-1.016,0.652-2.018,1.326-3.004,2.026l-2.971,2.078c-1.98,1.388-3.914,2.848-5.88,4.285
					c-1.962,1.44-3.926,2.896-5.97,4.295c-0.997,0.72-2.07,1.375-3.11,2.06c-1.065,0.662-2.147,1.309-3.267,1.91
					c-1.132,0.592-2.261,1.183-3.475,1.655c-1.167,0.544-2.448,0.885-3.681,1.299l-2.307,0.773l-0.064-2.479l-0.133-5.152
					c-0.053-1.718-0.165-3.429-0.244-5.145c-0.077-1.716-0.251-3.419-0.375-5.131c-0.138-1.709-0.354-3.405-0.528-5.11
					c-0.241-1.69-0.442-3.392-0.739-5.071l-0.447-2.519c-0.159-0.837-0.358-1.663-0.535-2.496c-0.168-0.836-0.384-1.656-0.608-2.474
					c-0.22-0.819-0.425-1.645-0.7-2.443c-0.497-1.618-1.075-3.207-1.748-4.748c-0.344-0.767-0.675-1.542-1.084-2.273l-0.589-1.111
					l-0.651-1.073c-0.883-1.421-1.866-2.782-2.982-4.047c-2.183-2.566-4.877-4.766-7.225-7.415c-1.184-1.31-2.226-2.766-3.107-4.297
					c-0.911-1.521-1.57-3.165-2.173-4.81c-0.552-1.666-0.991-3.356-1.327-5.068c-0.147-0.859-0.334-1.715-0.446-2.572l-0.338-2.572
					c-0.015-0.109,0.063-0.21,0.172-0.225C201.708,538.456,201.806,538.528,201.825,538.632z"/>
			</g>
			<path id="XMLID_3230_" fill="#FF5252" d="M604.057,609.382c-2.377-3.614-6.688-2.839-14.093-0.739
				c-10.611,3.01-44.872-0.445-44.872-0.445l-21.444,15.689l25.428,7.856c3.169,8.148,11.068,10.736,16.832,7.213l36.524-22.324
				C604.762,615.193,605.563,611.67,604.057,609.382z"/>
			<g id="XMLID_3225_">
				<g id="XMLID_3226_">
					<path id="XMLID_3227_" fill="#26A69A" d="M407.871,599.845c39.848,11.721,51.615,15.571,136.311,31.031l10.696-22.456
						c-66.689-35.932-112.657-57.785-164.773-68.148c-28.928,10.669-96.124,107.979-112.9,142.653
						c-7.247,21.305,36.146,51.017,51.314,45.393C351.606,719.758,390.687,658.585,407.871,599.845z"/>
				</g>
			</g>
			<g id="XMLID_3222_">
				<g id="path1905_3_">
					<path id="XMLID_3224_" fill="#D69176" d="M316.983,548.954c4.262,4.983-1.119,9.467-1.119,9.467s10.818-5.674,5.852-12.773
						c-4.642-6.628-8.201-9.92,11.066-21.265C332.782,524.383,302.539,532.052,316.983,548.954L316.983,548.954z"/>
				</g>
				<g id="path1913_3_">
					<path id="XMLID_3223_" fill="#D69176" d="M324.598,504.125c0,0,9.178,9.326-8.705,23.664
						c-14.343,11.501-3.272,18.064-0.007,25.555c-8.374-7.671-14.515-14.428-10.392-20.71
						C311.539,523.409,328.3,518.937,324.598,504.125L324.598,504.125z"/>
				</g>
			</g>
			<g id="XMLID_3215_">
				<path id="XMLID_1978_" fill="#FFFFFF" d="M414.978,574.176c0,0,0.082,0.419,0.226,1.153c0.075,0.366,0.156,0.813,0.244,1.324
					c0.08,0.515,0.118,1.116,0.187,1.77c0.031,0.329,0.063,0.672,0.097,1.027c0.01,0.353,0.02,0.717,0.031,1.091
					c0.016,0.75,0.039,1.549-0.028,2.367c-0.055,0.819-0.072,1.679-0.219,2.531c-0.114,0.859-0.235,1.735-0.425,2.597
					c-0.155,0.872-0.333,1.739-0.519,2.598c-0.155,0.869-0.426,1.688-0.703,2.475c-0.328,0.766-0.687,1.488-1.102,2.134
					c-0.411,0.647-0.827,1.242-1.266,1.757c-0.422,0.522-0.868,0.964-1.261,1.35c-0.409,0.377-0.779,0.689-1.11,0.928
					c-0.65,0.482-1.099,0.689-1.099,0.689c-0.114,0.053-0.249,0.003-0.301-0.111c-0.018-0.04-0.024-0.082-0.019-0.123l0.001-0.007
					c0,0,0.062-0.47,0.218-1.232c0.075-0.382,0.178-0.835,0.303-1.342c0.124-0.509,0.276-1.066,0.44-1.672
					c0.356-1.196,0.757-2.565,1.343-3.955c0.279-0.701,0.674-1.386,1.014-2.111c0.362-0.718,0.709-1.461,0.978-2.231
					c0.302-0.762,0.539-1.542,0.771-2.315c0.252-0.769,0.431-1.542,0.629-2.291c0.221-0.746,0.319-1.484,0.472-2.184
					c0.071-0.351,0.139-0.692,0.206-1.022c0.043-0.33,0.085-0.648,0.125-0.955c0.075-0.617,0.171-1.181,0.208-1.698
					c0.024-0.519,0.05-0.971,0.079-1.344c0.052-0.746,0.082-1.172,0.082-1.172c0.008-0.111,0.104-0.195,0.215-0.187
					C414.887,574.02,414.961,574.088,414.978,574.176z"/>
				<path id="XMLID_1977_" fill="#FFFFFF" d="M404.12,581.055c0,0,0.48,1.123,1.118,2.824c0.327,0.849,0.712,1.838,1.085,2.907
					c0.396,1.064,0.758,2.211,1.14,3.354c0.361,1.148,0.939,2.25,1.198,3.343c0.241,1.097,0.23,2.17,0.164,3.102
					c-0.073,0.933-0.247,1.734-0.422,2.307c-0.169,0.571-0.336,0.913-0.336,0.913c-0.062,0.125-0.214,0.178-0.34,0.116
					c-0.019-0.009-0.037-0.021-0.052-0.033c0,0-0.291-0.245-0.676-0.699c-0.391-0.453-0.874-1.117-1.316-1.941
					c-0.437-0.826-0.878-1.804-1.1-2.904c-0.204-1.104-0.119-2.346-0.251-3.542c-0.111-1.2-0.242-2.396-0.309-3.529
					c-0.089-1.129-0.135-2.19-0.179-3.099c-0.102-1.814-0.115-3.035-0.115-3.035c-0.001-0.113,0.089-0.206,0.202-0.207
					C404.015,580.93,404.088,580.981,404.12,581.055z"/>
			</g>
		</g>
		<g id="XMLID_3211_">
			<path id="XMLID_3213_" fill="#D69176" d="M508.828,719.309L508.828,719.309c-27.25,0-49.34-22.091-49.34-49.341l0,0
				c0-27.25,22.09-49.34,49.34-49.34h0c27.25,0,49.34,22.09,49.34,49.34l0,0C558.168,697.218,536.078,719.309,508.828,719.309z"/>
			<path id="XMLID_3212_" fill="#D69176" d="M508.168,891.27h-48.681V669.604h98.681V841.27
				C558.168,868.884,535.782,891.27,508.168,891.27z"/>
		</g>
		<g id="XMLID_3202_">
			<path id="XMLID_3210_" fill="#B76F58" d="M184.723,891.27h162.134V669.968c0-27.25-22.09-49.34-49.34-49.34H117.35
				c-30.028,0-53.094,26.597-48.844,56.324l18.529,129.604C93.984,855.165,135.618,891.27,184.723,891.27z"/>
			<path id="XMLID_3209_" fill="#D69176" d="M346.848,669.604c-0.197-27.082-22.203-48.977-49.331-48.977l0,0
				c-27.128,0-49.135,21.895-49.332,48.977h-0.009v0.363l0,0v171.961c0,27.25,22.09,49.34,49.341,49.34h49.34V669.968l0,0v-0.363
				H346.848z"/>
			<path id="XMLID_1975_" fill="#B76F58" d="M557.568,846.736l-0.816-44.283l-0.384-22.141l-0.3-22.142l-0.6-44.283l-0.432-44.283
				l2.832,2.832h-0.009c-1.501,0.012-2.736-1.158-2.822-2.64l-0.009-0.172c-0.062-1.093-0.052-2.189-0.18-3.276
				c-0.078-1.091-0.227-2.173-0.388-3.253c-0.062-0.543-0.185-1.076-0.283-1.613c-0.11-0.534-0.187-1.076-0.329-1.603
				c-0.25-1.063-0.513-2.121-0.843-3.161c-0.147-0.526-0.313-1.045-0.502-1.556c-0.185-0.513-0.353-1.032-0.549-1.541l-0.617-1.514
				c-0.192-0.511-0.447-0.994-0.67-1.491c-0.437-1-0.976-1.948-1.475-2.917c-0.561-0.935-1.081-1.893-1.7-2.791
				c-0.411-0.714-0.854-1.408-1.321-2.088c-0.444-0.697-0.941-1.354-1.433-2.02c-0.984-1.328-2.063-2.585-3.182-3.811
				c-0.569-0.603-1.159-1.187-1.743-1.778c-0.616-0.557-1.212-1.139-1.844-1.68c-1.266-1.08-2.571-2.122-3.949-3.066
				c-0.686-0.478-1.375-0.95-2.095-1.376c-0.705-0.453-1.43-0.87-2.169-1.266c-1.463-0.819-2.986-1.53-4.535-2.184
				c-1.551-0.651-3.146-1.199-4.76-1.694l-2.449-0.652c-0.827-0.169-1.652-0.364-2.485-0.516c-1.669-0.29-3.354-0.514-5.05-0.637
				c-0.843-0.036-1.712-0.129-2.538-0.121c-0.877-0.01-1.76-0.025-2.588,0.018c-1.679,0.031-3.407,0.201-5.102,0.41
				c-0.851,0.105-1.695,0.262-2.545,0.393c-0.839,0.179-1.688,0.324-2.524,0.53c-1.672,0.403-3.341,0.848-4.968,1.421
				c-1.641,0.541-3.237,1.204-4.821,1.902c-1.562,0.743-3.117,1.516-4.597,2.42c-1.503,0.869-2.922,1.875-4.32,2.911l-0.009,0.006
				c-0.133,0.099-0.321,0.07-0.419-0.063c-0.095-0.128-0.072-0.307,0.047-0.408c1.348-1.137,2.726-2.25,4.199-3.232
				c1.451-1.017,2.985-1.905,4.537-2.767c1.573-0.818,3.171-1.602,4.822-2.265c1.638-0.696,3.329-1.264,5.033-1.791
				c0.851-0.267,1.719-0.474,2.58-0.714c0.872-0.192,1.74-0.411,2.619-0.576c1.765-0.331,3.515-0.618,5.335-0.77
				c0.919-0.102,1.788-0.141,2.662-0.186c0.925-0.064,1.807-0.029,2.715-0.047c1.804,0.013,3.608,0.134,5.409,0.328
				c0.899,0.105,1.793,0.253,2.691,0.38l2.671,0.528c1.768,0.417,3.526,0.897,5.25,1.492c1.722,0.598,3.426,1.264,5.077,2.049
				c0.833,0.379,1.654,0.784,2.456,1.227c0.817,0.417,1.605,0.882,2.391,1.357c1.578,0.938,3.088,1.987,4.562,3.089
				c0.735,0.553,1.438,1.149,2.158,1.724c0.689,0.611,1.385,1.218,2.061,1.846c1.332,1.278,2.625,2.604,3.823,4.016
				c0.599,0.707,1.203,1.411,1.753,2.158c0.574,0.73,1.123,1.479,1.64,2.251c0.684,1.023,1.266,2.109,1.883,3.173
				c0.555,1.098,1.146,2.178,1.63,3.31c0.246,0.563,0.523,1.113,0.736,1.69l0.676,1.716c0.215,0.576,0.4,1.163,0.601,1.743
				c0.207,0.58,0.387,1.167,0.547,1.761c0.358,1.177,0.643,2.372,0.91,3.571c0.152,0.596,0.236,1.206,0.352,1.809
				c0.104,0.605,0.232,1.206,0.297,1.817c0.167,1.217,0.31,2.436,0.381,3.661c0.12,1.222,0.097,2.45,0.142,3.674l-2.832-2.812h0.009
				l0.049,0.001c1.549,0.012,2.794,1.277,2.782,2.826v0.005l-0.432,44.283l-0.6,44.283l-0.3,22.142l-0.384,22.141l-0.816,44.283
				c-0.003,0.166-0.14,0.298-0.305,0.294C557.7,847.028,557.571,846.896,557.568,846.736z"/>
			<path id="XMLID_1974_" fill="#B76F58" d="M346.557,846.736l-0.816-44.283l-0.384-22.141l-0.3-22.142l-0.6-44.283l-0.432-44.283
				l2.832,2.832h-0.009c-1.501,0.012-2.736-1.158-2.822-2.64l-0.009-0.172c-0.062-1.093-0.052-2.189-0.18-3.276
				c-0.078-1.091-0.227-2.173-0.388-3.253c-0.062-0.543-0.185-1.076-0.283-1.613c-0.109-0.534-0.186-1.076-0.329-1.603
				c-0.25-1.063-0.513-2.121-0.843-3.161c-0.146-0.525-0.312-1.045-0.502-1.556c-0.185-0.513-0.353-1.032-0.549-1.54l-0.617-1.515
				c-0.192-0.51-0.447-0.994-0.67-1.491c-0.437-0.999-0.976-1.948-1.475-2.917c-0.561-0.935-1.081-1.893-1.7-2.791
				c-0.411-0.714-0.854-1.408-1.322-2.088c-0.443-0.696-0.941-1.354-1.432-2.02c-0.984-1.328-2.063-2.585-3.182-3.811
				c-0.569-0.603-1.159-1.187-1.743-1.778c-0.615-0.557-1.212-1.139-1.843-1.68c-1.266-1.08-2.571-2.122-3.949-3.066
				c-0.686-0.478-1.375-0.95-2.095-1.376c-0.705-0.453-1.43-0.87-2.169-1.266c-1.463-0.819-2.986-1.53-4.535-2.184
				c-1.551-0.651-3.146-1.199-4.76-1.694l-2.449-0.652c-0.827-0.169-1.652-0.364-2.485-0.516c-1.669-0.29-3.354-0.514-5.051-0.637
				c-0.843-0.036-1.712-0.129-2.538-0.121c-0.878-0.01-1.76-0.025-2.588,0.018c-1.678,0.031-3.406,0.201-5.102,0.41
				c-0.852,0.105-1.695,0.262-2.545,0.393c-0.839,0.179-1.688,0.324-2.524,0.53c-1.671,0.403-3.341,0.848-4.968,1.421
				c-1.64,0.541-3.237,1.204-4.821,1.902c-1.562,0.743-3.116,1.515-4.597,2.419c-1.503,0.869-2.921,1.875-4.32,2.911l-0.009,0.006
				c-0.133,0.099-0.321,0.07-0.419-0.063c-0.095-0.128-0.072-0.307,0.048-0.408c1.347-1.137,2.726-2.25,4.198-3.232
				c1.451-1.017,2.985-1.905,4.537-2.767c1.573-0.818,3.171-1.602,4.821-2.265c1.639-0.696,3.329-1.264,5.033-1.791
				c0.851-0.267,1.719-0.475,2.581-0.714c0.872-0.192,1.74-0.411,2.619-0.576c1.764-0.331,3.515-0.618,5.335-0.77
				c0.918-0.102,1.788-0.141,2.662-0.186c0.925-0.064,1.807-0.029,2.715-0.047c1.804,0.013,3.608,0.134,5.409,0.328
				c0.899,0.105,1.793,0.253,2.691,0.379l2.671,0.528c1.768,0.417,3.525,0.897,5.25,1.492c1.721,0.598,3.426,1.264,5.077,2.049
				c0.833,0.379,1.654,0.784,2.456,1.227c0.817,0.417,1.605,0.882,2.391,1.357c1.578,0.938,3.088,1.988,4.562,3.09
				c0.735,0.553,1.437,1.148,2.158,1.724c0.689,0.611,1.385,1.217,2.061,1.845c1.332,1.278,2.625,2.604,3.823,4.016
				c0.599,0.707,1.203,1.411,1.753,2.158c0.574,0.73,1.123,1.479,1.64,2.251c0.684,1.023,1.266,2.109,1.883,3.173
				c0.555,1.098,1.146,2.178,1.629,3.31c0.246,0.563,0.523,1.113,0.737,1.69l0.676,1.716c0.214,0.576,0.4,1.163,0.601,1.743
				c0.206,0.58,0.387,1.167,0.547,1.761c0.358,1.176,0.643,2.372,0.91,3.571c0.152,0.596,0.236,1.206,0.352,1.809
				c0.104,0.605,0.232,1.207,0.297,1.817c0.167,1.217,0.311,2.436,0.381,3.661c0.12,1.222,0.097,2.45,0.142,3.674l-2.832-2.812
				h0.009l0.049,0.001c1.549,0.012,2.794,1.277,2.782,2.826v0.005l-0.432,44.283l-0.6,44.283l-0.3,22.142l-0.383,22.141
				l-0.816,44.283c-0.003,0.166-0.14,0.298-0.306,0.294C346.689,847.028,346.56,846.896,346.557,846.736z"/>
		</g>
		<path id="XMLID_3201_" fill="#E5B735" d="M239.615,537.865c-17.516-2.097-20.723-13.815-20.723-13.815s3.111-19.182,6.908-15.635
			c3.796,3.547,25.41,8.481,29.604,5.767c2.863-1.852,3.657,7.292,3.872,15.789C259.376,533.921,255.182,539.729,239.615,537.865z"
			/>
		<g id="XMLID_3198_">
			<g id="path1905_2_">
				<path id="XMLID_3200_" fill="#FFFFFF" d="M317.471,548.156c4.262,4.982-1.119,9.467-1.119,9.467s10.818-5.674,5.852-12.773
					c-4.641-6.628-8.201-9.92,11.066-21.264C333.27,523.585,303.028,531.254,317.471,548.156L317.471,548.156z"/>
			</g>
			<g id="path1913_2_">
				<path id="XMLID_3199_" fill="#FFFFFF" d="M325.086,503.327c0,0,9.177,9.325-8.705,23.664
					c-14.343,11.501-3.272,18.064-0.007,25.555c-8.374-7.672-14.515-14.428-10.393-20.711
					C312.027,522.611,328.788,518.139,325.086,503.327L325.086,503.327z"/>
			</g>
		</g>
	</g>
</g>
</svg>
